<svg width="60" height="86" viewBox="0 0 60 86" fill="none" xmlns="http://www.w3.org/2000/svg">
<path d="M35.09 26.9C39.22 29.79 49.12 16.42 51.99 13.99C51.24 17.77 44.9 24.69 46.08 28.35C46.92 30.95 53.06 29.89 55.52 29.98C56.73 30.02 59.24 29.24 59 30.97C55.81 31.1 45.95 35.14 45.99 38.46C46.04 43.26 56.18 47.78 59.01 50.97C55.67 50.13 43.82 44.57 41.45 47.92C39.39 56.3 46.73 62.67 49 69.98C46.96 67.66 37.04 56.24 33.96 58.41C30.37 65.44 31.66 73.78 30.88 81.36C30.78 82.38 30.48 86.06 29.01 85.98C29.26 77.91 28.93 69.85 26.99 61.99C21.24 62.19 18.38 68.21 14.01 70.99C12.92 69.74 23.37 58.79 20.58 54.92C14.71 51.92 8.72 55.7 3 56.98C5.45 53.41 13.08 51.57 13.1 46.49C13.12 41.84 4.21 38.2 0 37.98L10.51 34.01C13.65 27.86 4.1 18.84 1 14L17.06 26.43L24 28.56C29.04 22.41 28.23 13.93 29.12 6.62C29.3 5.17 29.64 0.56 30.99 0C30.68 9.15 32 18.35 35.09 26.9ZM35.66 33.2C33.13 33.43 30.41 37.42 28.5 38.98C25.04 33.15 14.25 31.21 16.18 40.27C16.77 43.03 26.83 56.05 29.52 55.81C32.7 51.91 43.66 40.27 40.08 35.43C39.35 34.44 36.96 33.08 35.66 33.2Z" fill="black"/>
</svg>
